<svg version="1.1"
	xmlns="http://www.w3.org/2000/svg" xmlns:xlink="http://www.w3.org/1999/xlink"
	width="200px" height="320px" viewBox="0 0 200 320"
>
<path fill="#FFFFFF" stroke="#404040" d="M169.5,0.5c0,0,22.7,0.9,16.2,56.2 M123.3,139
	c23.5-20.4,58.1-46,62.4-82.3 M101.7,167.5 M123.3,139c-12.3,10.7-21.5,19.9-21.7,28.5l0,0c0,0,0,0,0,0c0,0,0,0,0,0l0,0
	c0.1,8.6,9.4,17.8,21.7,28.5 M169.5,334.6c0,0,22.7-0.9,16.2-56.2 M185.7,278.3c-4.3-36.2-38.9-61.9-62.4-82.3 M169.7,1H17.8
	c0,0-22.6,0.9-16.1,56.2 M1.6,56.7C5.9,93,40.5,118.6,64,139 M1.7,278.8C-4.8,334.1,17.8,335,17.8,335h151.8 M85.6,167.5 M64,196.1
	c12.3-10.7,21.5-19.9,21.7-28.5l0,0c0,0,0,0,0,0c0,0,0,0,0,0l0,0c-0.1-8.6-9.4-17.8-21.7-28.5 M64,196.1
	c-23.5,20.4-58.1,46-62.4,82.3"/>
</svg>