<?xml version="1.0"?><svg width="640" height="480" xmlns="http://www.w3.org/2000/svg">
 <defs>
  <filter id="filter3269" height="1.193632" y="-0.096816" width="1.405648" x="-0.202824">
   <feGaussianBlur id="feGaussianBlur3271" stdDeviation="10.944574"/>
  </filter>
  <filter id="filter3371" height="1.137373" y="-0.068687" width="1.240096" x="-0.120048">
   <feGaussianBlur id="feGaussianBlur3373" stdDeviation="6.988217"/>
  </filter>
 </defs>
 <metadata id="metadata7">image/svg+xml</metadata>
 <g>
  <title>Layer 1</title>
  <g display="inline" id="layer3"/>
  <path fill="#c8a406" fill-rule="nonzero" stroke-width="0.5" stroke-linecap="round" stroke-miterlimit="4" id="path3594" d="m105.10701,169.611572c22.109665,29.89447 74.521423,45.147095 74.520844,75.628845c-0.000458,22.704102 8.708908,62.123962 -15.555573,81.040527c-16.108139,12.558105 -21.211365,22.317505 -68.625992,22.291992c0,58.420288 36.784241,74.936646 89.250549,74.936646c52.466217,0 89.250549,-16.516357 89.250549,-74.936646c-55.712189,0.086426 -49.624207,-7.678833 -69.796539,-22.018188c-21.851074,-15.532471 -14.384613,-61.67157 -14.38501,-81.314331c-0.00058,-30.48175 52.411194,-45.734375 74.520844,-75.628845c0,0 -40.387604,24.927002 -80.182526,24.927002c-39.794922,0 -78.997147,-24.927002 -78.997147,-24.927002z"/>
  <path fill="#ffffff" stroke-width="5" stroke-linecap="round" stroke-miterlimit="4" filter="url(#filter3269)" id="path3150" d="m125.161926,121.869492c-3.190025,11.912476 0.204132,36.196136 24.239288,74.521454c-42.94606,-21.73735 -51.137924,-63.094238 -42.95031,-83.038185c7.887619,-19.213135 27.011909,-36.196129 54.006828,-36.196129c-28.287689,16.181824 -32.319031,33.596817 -35.295807,44.71286z"/>
  <path fill="#ffffff" stroke-width="5" stroke-linecap="round" stroke-miterlimit="4" filter="url(#filter3371)" d="m120.909424,332.295227c-7.699707,12.21637 -7.450394,27.679413 -4.677757,53.229645c-14.029022,-20.034027 -17.242371,-43.74585 -9.780762,-58.339691c7.293114,-14.264313 24.460411,-20.014313 57.408821,-48.971222c-13.829132,34.066925 -34.870529,41.261871 -42.950302,54.081268z" id="path3273"/>
  <rect fill="#c8a406" stroke="#c8a406" stroke-width="5" stroke-linecap="round" stroke-miterlimit="4" rx="18.7815" ry="18.7815" y="32.918152" x="25.103731" height="28.914005" width="314.41525" id="rect3563"/>
  <rect fill="#c8a406" stroke="#c8a410" stroke-width="5" stroke-linecap="round" stroke-miterlimit="4" id="rect3163" width="314.41525" height="28.914005" x="25.103731" y="428.449192" ry="18.7815" rx="18.7815"/>
  <path fill="none" stroke="#c8a406" stroke-width="5" stroke-linecap="round" stroke-miterlimit="4" d="m187.038544,427.201111c56.691742,0 103.354889,-20.208008 103.354889,-78.628174c0,-50.511841 -89.825806,-65.556152 -89.826599,-103.33252c-0.000793,-38.628052 89.826599,-52.788879 89.826599,-103.299561c0,-58.420166 -46.004852,-78.628296 -103.354889,-78.628296c-57.350037,0 -103.354889,20.20813 -103.354889,78.628296c0,50.510681 89.827393,64.671509 89.826599,103.299561c-0.000793,37.776367 -89.826599,52.820679 -89.826599,103.33252c0,58.420166 46.663147,78.628174 103.354889,78.628174z" id="path3576"/>
 </g>
</svg>